<?xml version="1.0" standalone="no"?>
<!DOCTYPE svg PUBLIC "-//W3C//DTD SVG 20010904//EN"
 "http://www.w3.org/TR/2001/REC-SVG-20010904/DTD/svg10.dtd">
<svg version="1.0" xmlns="http://www.w3.org/2000/svg"
 width="700.000000pt" height="700.000000pt" viewBox="0 0 700.000000 700.000000"
 preserveAspectRatio="xMidYMid meet">
<metadata>
Created by potrace 1.11, written by Peter Selinger 2001-2013
</metadata>
<g transform="translate(0.000000,700.000000) scale(0.100000,-0.100000)"
fill="#000000" stroke="none">
<path d="M3420 6764 c0 -7 -18 -11 -42 -12 -103 0 -291 -16 -306 -26 -6 -3
-13 -2 -17 4 -4 6 -12 7 -18 3 -7 -4 -16 -8 -22 -9 -44 -7 -84 -14 -105 -19
-14 -3 -45 -8 -70 -11 -25 -3 -49 -9 -55 -12 -11 -7 -24 -10 -77 -19 -21 -3
-38 -9 -38 -12 0 -6 -26 -11 -67 -14 -7 0 -13 -4 -13 -9 0 -5 -4 -7 -9 -4 -5
3 -30 -1 -57 -9 -27 -8 -53 -15 -59 -15 -5 -1 -16 -6 -22 -12 -7 -6 -13 -7
-13 -2 0 5 -4 4 -8 -1 -8 -12 -71 -35 -95 -35 -9 0 -17 -4 -17 -9 0 -5 -12
-11 -27 -14 -16 -3 -41 -11 -58 -18 -16 -7 -33 -12 -37 -11 -5 1 -8 -3 -8 -8
0 -5 -3 -9 -7 -8 -5 1 -19 -3 -33 -9 -14 -6 -29 -11 -33 -11 -4 -1 -15 -8 -23
-17 -9 -8 -20 -13 -25 -10 -5 4 -9 1 -9 -5 0 -6 -5 -8 -10 -5 -6 3 -13 0 -16
-8 -2 -7 -11 -14 -19 -15 -8 -1 -22 -3 -30 -4 -8 -1 -15 -5 -15 -9 0 -4 -16
-13 -35 -20 -19 -7 -35 -16 -35 -20 0 -4 -14 -10 -30 -14 -17 -4 -28 -10 -26
-14 3 -4 -15 -16 -40 -27 -24 -10 -44 -21 -44 -24 0 -3 -17 -14 -37 -25 -21
-11 -47 -28 -57 -37 -11 -10 -25 -18 -31 -18 -7 0 -20 -9 -30 -20 -10 -11 -23
-20 -29 -20 -6 0 -17 -9 -24 -21 -9 -13 -19 -18 -30 -14 -9 3 -13 3 -10 -1 7
-7 -27 -37 -75 -68 -32 -19 -60 -43 -119 -98 -22 -21 -45 -38 -50 -38 -5 0 -6
-4 -3 -10 3 -5 1 -10 -5 -10 -5 0 -27 -15 -48 -34 -20 -19 -52 -49 -71 -65
-18 -17 -31 -31 -28 -31 3 0 -28 -34 -68 -75 -41 -41 -72 -75 -69 -75 2 0 -4
-8 -13 -18 -10 -11 -21 -17 -25 -15 -5 2 -8 -3 -8 -12 0 -8 -7 -18 -15 -21 -8
-4 -12 -10 -9 -15 3 -5 1 -9 -5 -9 -5 0 -24 -22 -42 -50 -18 -27 -36 -50 -41
-50 -5 0 -6 -4 -3 -10 3 -5 -1 -10 -10 -10 -9 0 -13 -4 -10 -10 3 -5 -5 -21
-19 -34 -14 -13 -26 -28 -26 -34 0 -6 -4 -12 -9 -14 -5 -1 -11 -9 -13 -17 -2
-7 -13 -25 -25 -39 -13 -14 -23 -31 -23 -37 0 -7 -13 -27 -29 -44 -29 -30 -47
-67 -43 -83 1 -5 -2 -8 -7 -8 -4 0 -28 -39 -52 -87 -24 -49 -48 -91 -54 -95
-5 -4 -6 -8 -2 -8 4 0 -3 -20 -17 -44 -13 -24 -22 -47 -19 -50 4 -3 2 -6 -4
-6 -6 0 -13 -8 -16 -17 -4 -10 -13 -35 -20 -55 -8 -21 -13 -38 -10 -38 2 0 -3
-7 -11 -16 -9 -8 -16 -26 -16 -40 0 -13 -5 -24 -11 -24 -5 0 -8 -4 -4 -9 3 -5
1 -12 -4 -16 -5 -3 -8 -14 -6 -25 2 -12 0 -18 -6 -15 -5 4 -9 -4 -9 -17 0 -13
-5 -29 -12 -36 -7 -7 -8 -12 -4 -12 5 0 3 -7 -4 -15 -7 -8 -10 -15 -7 -15 3 0
0 -15 -8 -34 -8 -18 -11 -36 -8 -40 4 -3 1 -6 -7 -6 -9 0 -10 -3 -1 -13 8 -10
7 -17 -1 -25 -11 -11 -15 -22 -23 -67 -2 -11 -7 -31 -13 -45 -5 -14 -9 -39 -8
-57 0 -17 -2 -29 -6 -26 -5 2 -8 -6 -9 -19 0 -13 -2 -32 -5 -43 -2 -11 -5 -31
-7 -45 -2 -14 -6 -30 -9 -35 -5 -10 -9 -53 -10 -107 0 -16 -3 -28 -7 -28 -3 0
-6 -24 -6 -53 0 -28 -3 -60 -8 -69 -5 -12 -4 -18 5 -18 8 0 9 -3 3 -8 -5 -4
-10 -16 -9 -27 0 -11 -3 -30 -8 -42 -4 -12 -4 -25 1 -27 9 -6 8 -37 -3 -54 -4
-7 -2 -12 4 -12 8 0 7 -6 -1 -21 -8 -16 -8 -20 1 -14 9 6 9 3 1 -13 -8 -14 -8
-23 -1 -27 8 -5 7 -11 -1 -21 -6 -8 -7 -14 -2 -14 5 0 10 -7 10 -15 0 -8 -4
-15 -9 -15 -5 0 -6 -5 -2 -11 6 -10 12 -94 17 -236 1 -24 4 -43 7 -43 3 0 5
-18 5 -40 0 -22 2 -40 5 -40 3 0 5 -15 5 -32 -1 -18 4 -46 10 -63 6 -16 10
-42 9 -57 0 -16 2 -28 5 -28 4 0 8 -11 9 -25 3 -48 5 -55 16 -55 6 0 4 -5 -4
-10 -11 -7 -11 -10 -2 -10 7 0 11 -4 8 -8 -3 -5 1 -21 9 -36 8 -14 10 -24 5
-21 -6 4 -10 1 -10 -4 0 -6 5 -11 11 -11 5 0 8 -4 5 -9 -4 -5 0 -12 6 -14 10
-4 9 -6 -1 -6 -9 -1 -10 -5 -3 -13 8 -11 28 -76 47 -153 3 -11 9 -21 15 -23 6
-2 8 -7 5 -12 -3 -4 2 -24 10 -43 8 -19 11 -37 8 -41 -4 -3 -1 -6 6 -6 7 0 9
-4 6 -10 -3 -5 -2 -10 4 -10 5 0 8 -8 7 -18 -2 -9 0 -19 4 -22 5 -3 10 -14 12
-25 1 -11 8 -23 13 -27 6 -4 10 -11 10 -15 0 -14 39 -98 48 -104 5 -3 8 -9 8
-13 -3 -20 0 -26 11 -20 6 4 8 3 5 -3 -3 -5 15 -50 40 -99 25 -49 51 -99 57
-111 6 -13 14 -23 19 -23 4 0 7 -6 7 -13 0 -7 9 -23 20 -35 12 -12 17 -22 13
-22 -4 0 -3 -4 2 -8 6 -4 19 -23 29 -42 11 -19 23 -37 27 -40 4 -3 9 -11 11
-19 2 -7 15 -27 31 -45 15 -17 27 -36 27 -44 0 -7 4 -10 10 -7 5 3 10 -1 10
-9 0 -9 5 -16 11 -16 5 0 8 -4 5 -9 -3 -5 1 -11 9 -15 8 -3 15 -13 15 -21 0
-9 5 -13 10 -10 6 3 10 0 10 -8 0 -7 11 -24 25 -37 14 -13 25 -28 25 -35 0 -6
8 -18 17 -26 10 -9 35 -34 56 -57 21 -23 42 -42 47 -42 6 0 9 -3 8 -7 -2 -5
12 -23 30 -41 17 -18 32 -37 32 -42 0 -5 9 -12 20 -15 11 -3 20 -13 20 -21 0
-8 7 -14 16 -14 8 0 12 -5 9 -10 -3 -6 -2 -10 4 -10 6 0 25 -15 44 -33 32 -31
87 -80 155 -139 18 -16 36 -28 41 -28 5 0 11 -7 15 -15 3 -8 12 -15 20 -15 8
0 21 -8 28 -19 7 -10 28 -26 45 -35 18 -9 33 -21 33 -26 0 -6 7 -10 15 -10 8
0 15 -4 15 -10 0 -5 5 -10 11 -10 7 0 22 -12 35 -26 13 -14 29 -22 34 -19 6 3
10 3 10 -2 0 -4 24 -21 53 -37 28 -16 60 -36 69 -44 10 -8 18 -11 18 -7 0 5 7
0 16 -11 8 -10 12 -12 8 -4 -4 8 4 5 18 -7 13 -13 28 -23 33 -23 5 0 16 -7 25
-15 10 -9 28 -18 40 -20 13 -3 26 -9 29 -14 3 -5 15 -11 26 -13 11 -1 22 -5
25 -8 3 -3 28 -16 55 -30 28 -14 52 -27 55 -30 15 -16 60 -39 60 -31 0 11 100
-27 115 -44 10 -11 110 -38 140 -38 8 0 15 -4 15 -9 0 -4 9 -8 19 -8 11 0 22
-4 26 -9 3 -6 14 -8 25 -6 11 2 22 -1 25 -6 4 -5 11 -7 16 -4 5 4 9 1 9 -5 0
-6 4 -9 8 -6 5 3 35 -2 68 -11 32 -9 67 -16 77 -15 9 0 17 -3 17 -7 0 -5 10
-7 23 -7 12 1 30 -4 40 -12 12 -11 17 -12 17 -3 0 7 5 9 13 4 13 -8 27 -11 70
-15 15 -1 27 -5 27 -8 0 -4 9 -6 21 -5 11 1 46 -2 77 -7 108 -16 137 -19 209
-23 40 -2 76 -6 80 -8 13 -8 443 -2 488 7 22 4 59 8 82 9 24 1 43 5 43 8 0 4
21 5 48 4 26 -2 61 3 77 9 17 7 49 12 73 12 23 -1 42 2 42 5 0 3 6 6 14 6 8 0
30 8 51 17 20 10 60 19 88 21 49 3 67 8 135 37 15 6 33 10 40 9 6 -1 12 3 12
8 0 6 7 8 15 5 8 -4 15 -1 15 5 0 6 6 11 14 11 8 0 33 9 57 19 24 11 47 17 51
15 4 -3 8 0 8 6 0 6 4 9 8 6 5 -3 23 4 41 15 18 11 29 14 25 8 -5 -8 -3 -9 7
-3 8 5 16 9 19 9 3 1 20 9 38 18 17 10 32 14 32 10 0 -5 4 -3 8 2 4 6 21 17
37 24 37 18 35 17 62 26 13 4 20 12 16 19 -3 6 -3 8 1 4 8 -7 68 11 76 23 3 4
14 9 25 11 11 1 22 6 25 9 3 3 28 19 55 34 28 16 53 34 57 40 5 6 8 6 8 0 0
-6 3 -6 8 0 4 6 41 30 82 55 41 24 77 47 78 52 2 4 8 8 14 8 6 0 19 10 29 22
11 11 19 18 19 13 0 -4 17 7 38 24 55 47 61 51 67 51 5 0 46 33 76 62 9 9 20
14 22 11 3 -2 8 5 12 16 3 12 13 21 20 21 8 0 19 8 24 18 6 9 11 14 11 11 0
-4 34 26 75 66 41 39 77 70 80 67 3 -3 5 2 5 12 0 9 5 14 10 11 6 -3 10 -2 10
4 0 6 12 23 28 39 117 124 162 174 162 182 0 6 8 10 17 10 9 0 13 3 10 7 -7 6
37 71 57 85 6 4 8 8 4 8 -4 0 3 11 15 24 31 33 70 81 67 81 -2 0 18 33 44 74
26 41 53 85 59 98 5 12 14 23 19 23 4 0 8 6 8 13 0 7 8 22 18 33 10 10 19 21
19 24 5 17 17 46 23 50 3 3 14 25 25 50 10 25 27 57 38 72 10 16 16 28 13 28
-4 0 44 105 76 164 5 10 11 26 13 35 3 9 25 75 49 146 25 72 47 139 49 150 2
11 7 27 10 35 4 8 9 26 11 40 3 14 7 34 10 45 14 56 45 204 50 235 14 97 19
138 20 167 0 17 3 30 6 28 4 -2 6 23 5 56 -1 32 1 59 5 59 3 0 5 39 5 86 -1
47 3 88 8 91 4 2 3 11 -4 19 -9 11 -8 14 2 14 12 0 12 2 1 9 -17 11 -17 21 0
32 7 5 9 9 3 9 -6 0 -11 32 -11 73 -2 121 -9 227 -14 227 -3 0 -6 10 -6 23 -5
99 -9 137 -15 137 -4 0 -6 8 -5 17 2 10 -1 33 -5 53 -4 19 -11 51 -14 70 -9
47 -13 65 -15 65 -1 0 -3 9 -5 20 -2 11 -6 29 -9 40 -2 11 -5 28 -5 38 -1 12
-5 16 -13 11 -9 -5 -9 -2 1 9 8 11 9 17 3 17 -6 0 -9 7 -6 15 4 8 2 15 -3 15
-5 0 -10 8 -11 18 -2 21 -7 42 -14 62 -30 81 -48 140 -48 154 0 9 -4 16 -8 16
-5 0 -9 6 -9 13 -1 22 -8 41 -21 56 -7 7 -11 19 -8 27 3 7 1 14 -4 16 -4 2
-10 12 -12 23 -1 11 -5 22 -8 25 -12 12 -50 93 -50 106 0 8 -4 14 -10 14 -5 0
-10 9 -10 20 0 11 -5 20 -11 20 -5 0 -7 5 -4 10 3 6 1 10 -5 10 -6 0 -8 5 -5
10 3 6 2 10 -2 10 -5 0 -15 16 -22 35 -7 19 -17 35 -22 35 -6 0 -8 4 -5 9 3 5
-17 43 -44 84 -28 42 -50 81 -50 86 0 6 -4 11 -9 11 -5 0 -14 14 -21 31 -7 17
-18 36 -24 42 -22 24 -50 72 -47 82 1 6 -1 7 -4 3 -4 -4 -21 12 -38 35 -17 23
-39 50 -49 61 -10 11 -18 24 -18 28 0 9 -25 40 -79 94 -19 19 -31 34 -27 34 4
0 1 6 -6 14 -7 8 -16 12 -20 9 -5 -2 -8 0 -8 5 0 6 -31 43 -70 83 -38 40 -70
77 -70 82 0 6 -3 8 -6 5 -5 -6 -41 24 -135 114 -27 25 -49 44 -49 41 0 -4 -10
6 -23 20 -12 15 -26 27 -30 27 -8 0 -22 11 -55 41 -9 8 -30 23 -47 34 -32 20
-46 31 -76 58 -10 9 -21 17 -24 17 -9 0 -70 44 -73 53 -2 4 -7 5 -12 2 -4 -3
-13 2 -20 10 -7 8 -19 15 -26 15 -8 0 -14 4 -14 9 0 5 -8 11 -17 15 -10 3 -40
19 -68 35 -27 16 -54 27 -60 24 -5 -4 -7 -3 -3 2 10 10 -21 34 -44 35 -10 0
-18 5 -18 10 0 6 -9 10 -20 10 -11 0 -20 5 -20 11 0 5 -4 8 -9 4 -5 -3 -15 0
-23 7 -7 7 -20 14 -28 16 -8 2 -16 8 -18 13 -2 5 -10 9 -18 9 -8 0 -22 4 -32
9 -9 5 -36 18 -59 30 -24 12 -43 19 -43 15 0 -3 -7 -1 -15 6 -8 7 -15 9 -15 4
0 -5 -4 -4 -8 3 -4 6 -19 14 -34 17 -14 2 -36 9 -47 16 -12 6 -21 9 -21 6 0
-3 -12 1 -27 9 -15 8 -30 12 -35 9 -4 -3 -8 0 -8 5 0 6 -7 11 -15 11 -9 0 -44
9 -78 21 -75 25 -93 30 -132 34 -16 2 -31 8 -33 14 -2 6 -8 9 -13 5 -5 -3 -9
-1 -9 4 0 5 -18 8 -40 7 -22 -1 -40 3 -40 7 0 5 -10 8 -22 7 -13 -1 -31 2 -41
6 -10 4 -21 5 -24 1 -3 -3 -11 -2 -17 4 -7 5 -31 10 -54 11 -23 2 -42 5 -42 8
0 4 -15 7 -32 7 -64 3 -137 12 -149 20 -7 4 -9 3 -5 -4 4 -7 -1 -10 -14 -9
-11 1 -20 4 -20 8 0 4 -14 5 -30 4 -17 -1 -32 0 -34 4 -2 3 -69 6 -148 6 -86
0 -146 4 -150 10 -5 7 -8 6 -8 -1z"/>
</g>
</svg>
